<svg viewBox="0 0 14 14" fill="currentColor" xmlns="http://www.w3.org/2000/svg">
<path d="M3.86084 12.8827L0.333504 13.6667L1.1175 10.1393C0.601192 9.1736 0.331855 8.09511 0.333504 7.00001C0.333504 3.31801 3.31817 0.333344 7.00017 0.333344C10.6822 0.333344 13.6668 3.31801 13.6668 7.00001C13.6668 10.682 10.6822 13.6667 7.00017 13.6667C5.90507 13.6683 4.82658 13.399 3.86084 12.8827ZM4.05417 11.474L4.4895 11.7073C5.26187 12.1201 6.12443 12.3352 7.00017 12.3333C8.055 12.3333 9.08615 12.0205 9.96321 11.4345C10.8403 10.8485 11.5239 10.0155 11.9275 9.04099C12.3312 8.06645 12.4368 6.99409 12.231 5.95953C12.0252 4.92496 11.5173 3.97465 10.7714 3.22877C10.0255 2.48289 9.07522 1.97494 8.04065 1.76916C7.00609 1.56337 5.93373 1.66899 4.95919 2.07265C3.98465 2.47632 3.1517 3.15991 2.56567 4.03697C1.97963 4.91403 1.66684 5.94518 1.66684 7.00001C1.66684 7.88934 1.8835 8.74534 2.2935 9.51068L2.52617 9.94601L2.0895 11.9107L4.05417 11.474Z"/>
</svg>
