<svg viewBox="0 0 12 14" fill="currentColor" xmlns="http://www.w3.org/2000/svg">
<path d="M4.66667 0.333344C5.03467 0.333344 5.33333 0.63201 5.33333 1.00001V3.66668C5.33333 4.03468 5.03467 4.33334 4.66667 4.33334H3.33333V5.66668H6.66667V5.00001C6.66667 4.63201 6.96533 4.33334 7.33333 4.33334H11.3333C11.7013 4.33334 12 4.63201 12 5.00001V7.66668C12 8.03468 11.7013 8.33334 11.3333 8.33334H7.33333C6.96533 8.33334 6.66667 8.03468 6.66667 7.66668V7.00001H3.33333V11H6.66667V10.3333C6.66667 9.96534 6.96533 9.66668 7.33333 9.66668H11.3333C11.7013 9.66668 12 9.96534 12 10.3333V13C12 13.368 11.7013 13.6667 11.3333 13.6667H7.33333C6.96533 13.6667 6.66667 13.368 6.66667 13V12.3333H2.66667C2.29867 12.3333 2 12.0347 2 11.6667V4.33334H0.666667C0.298667 4.33334 0 4.03468 0 3.66668V1.00001C0 0.63201 0.298667 0.333344 0.666667 0.333344H4.66667ZM10.6667 11H8V12.3333H10.6667V11ZM10.6667 5.66668H8V7.00001H10.6667V5.66668ZM4 1.66668H1.33333V3.00001H4V1.66668Z"/>
</svg>
